<svg xmlns="http://www.w3.org/2000/svg" xmlns:xlink="http://www.w3.org/1999/xlink" width="1920" zoomAndPan="magnify" viewBox="0 0 1440 809.999993" height="1080" preserveAspectRatio="xMidYMid meet" version="1.0"><defs><clipPath id="78a2da29ee"><path d="M 339.160156 122 L 1100 122 L 1100 645 L 339.160156 645 Z M 339.160156 122 " clip-rule="nonzero"/></clipPath></defs><path fill="#000000" d="M 629.261719 375.816406 C 629.449219 375.890625 629.636719 375.9375 629.828125 376.007812 C 629.875 376.007812 629.921875 376.03125 629.992188 376.054688 C 629.757812 375.960938 629.496094 375.914062 629.285156 375.816406 Z M 629.261719 375.816406 " fill-opacity="1" fill-rule="nonzero"/><g clip-path="url(#78a2da29ee)"><path fill="#000000" d="M 1099.085938 127.476562 C 1092.730469 115.710938 1058.855469 126.484375 1046.597656 127.027344 C 1015.273438 131.726562 984.019531 136.949219 952.863281 142.667969 C 911.570312 150.203125 871.578125 160.808594 831.515625 171.796875 C 744.113281 188.921875 657.324219 209.382812 571.316406 232.652344 C 571.386719 232.652344 571.457031 232.605469 571.527344 232.582031 C 521.921875 245.621094 472.738281 261.851562 423.085938 275.058594 C 410.515625 278.320312 397.832031 281.175781 385.074219 283.5625 C 382.972656 283.683594 380.894531 284.578125 379.359375 285.902344 C 371.492188 286.164062 362.871094 285.289062 357.058594 290.4375 C 355.476562 292.824219 355.359375 294.785156 356.089844 296.4375 C 354.699219 296.722656 353.398438 297.335938 352.476562 298.894531 C 349.667969 304.921875 356.964844 308.914062 360.816406 312.339844 C 361.949219 313.164062 363.128906 313.945312 364.265625 314.773438 C 358.097656 314.109375 351.933594 313.425781 345.746094 312.789062 C 342.722656 312.480469 339.957031 314.675781 339.625 317.726562 C 339.320312 320.726562 341.5625 323.535156 344.585938 323.84375 C 350.964844 324.480469 357.367188 325.191406 363.769531 325.851562 C 370.265625 326.464844 376.761719 327.339844 383.234375 328.214844 C 424.289062 357.4375 465.910156 385.929688 505.855469 416.710938 C 539.898438 442.960938 572.308594 470.976562 606.441406 497.25 C 651.628906 531.671875 700.480469 562.289062 738.394531 605.167969 C 750.042969 617.570312 760.648438 631.152344 774.347656 641.523438 C 776.898438 643.53125 780.066406 644.621094 783.183594 644.621094 C 786.300781 644.621094 789.515625 643.484375 791.925781 641.074219 C 801.515625 648.140625 808.648438 637.058594 813.300781 629.808594 C 816.964844 624.585938 820.578125 619.316406 824.191406 614.121094 C 841.578125 589.078125 860.476562 565.289062 880.082031 541.875 C 879.917969 542.066406 879.800781 542.207031 879.632812 542.394531 C 887.3125 533.277344 895.175781 524.226562 902.996094 515.179688 C 902.710938 519.007812 906.398438 522.761719 910.414062 521.015625 C 941.40625 530.417969 972.445312 539.890625 1003.390625 549.601562 C 1018.980469 557.515625 1034.5 565.523438 1050 573.582031 C 1050.917969 574.195312 1051.957031 574.5 1053 574.5 C 1054.816406 574.5 1056.636719 573.605469 1057.699219 572.042969 C 1057.746094 571.972656 1057.699219 571.949219 1057.722656 571.878906 C 1061.644531 569.824219 1063.488281 564.128906 1062.496094 558.082031 C 1061.359375 544.003906 1059.566406 529.992188 1058.054688 515.984375 C 1055.101562 495.546875 1054.699219 475.019531 1055.007812 454.441406 C 1055.21875 417.609375 1056.542969 380.828125 1056.445312 344.019531 C 1056.398438 331.6875 1056.257812 319.332031 1055.550781 307 C 1055.382812 303.976562 1052.925781 301.519531 1049.832031 301.613281 C 1048.816406 301.753906 1048.0625 302.109375 1047.375 302.511719 C 1048.863281 300.054688 1048.652344 296.582031 1045.910156 294.972656 C 1052.101562 263.90625 1062.777344 234.09375 1075.296875 204.679688 C 1084.039062 184.433594 1093.390625 162.488281 1098.351562 140.5625 C 1099.015625 136.335938 1100.832031 131.585938 1099.039062 127.476562 Z M 370.617188 303.90625 C 370.925781 303.976562 371.28125 304.046875 371.539062 304.117188 C 387.203125 307.707031 402.957031 310.566406 418.714844 313.683594 C 468.910156 323.207031 518.304688 336.363281 567.109375 351.4375 C 643.929688 375.085938 720.136719 402.089844 796.957031 426.164062 C 796.71875 426.066406 796.484375 426.019531 796.246094 425.925781 C 838.292969 439.414062 881.289062 451.746094 924.234375 463.394531 C 923.902344 463.558594 923.570312 463.726562 923.21875 463.914062 C 915.632812 462.117188 908.074219 460.300781 900.515625 458.480469 C 864.253906 449.90625 827.757812 441.375 792.277344 430.320312 C 792.277344 430.320312 792.230469 430.320312 792.230469 430.320312 C 792.136719 430.320312 792.066406 430.25 791.972656 430.226562 C 792.019531 430.226562 792.042969 430.226562 792.136719 430.273438 C 737.78125 413.121094 684.324219 393.84375 629.804688 376.007812 C 618.179688 372.296875 606.535156 368.589844 594.628906 364.761719 C 594.867188 364.855469 595.078125 364.902344 595.316406 364.996094 C 528.296875 343.996094 459.769531 327.363281 390.082031 318.078125 C 383.585938 313.355469 377.066406 308.652344 370.570312 303.90625 Z M 902.050781 485.863281 C 861.328125 530.0625 827.734375 580.101562 790.105469 626.78125 C 790.105469 626.78125 790.105469 626.734375 790.152344 626.710938 C 741.679688 594.464844 702.417969 551.207031 657.015625 515.109375 C 576.203125 451.394531 492.179688 391.976562 408.863281 331.640625 C 458.070312 339.363281 507.109375 350.777344 555.132812 364.429688 C 554.898438 364.335938 554.660156 364.289062 554.425781 364.195312 C 578.660156 371.566406 602.164062 378.582031 626.285156 386.472656 C 626.023438 386.402344 625.742188 386.308594 625.503906 386.238281 C 626.332031 386.496094 626.710938 386.636719 627.511719 386.875 C 627.324219 386.828125 627.15625 386.78125 626.96875 386.734375 C 680.921875 404.570312 734.640625 423.632812 788.875 440.878906 C 788.804688 440.832031 788.734375 440.808594 788.640625 440.761719 C 829.554688 453.730469 871.53125 462.96875 913.273438 472.9375 C 908.738281 478.183594 904.578125 483.828125 902.074219 485.863281 Z M 907.414062 510.054688 C 908.167969 509.179688 908.925781 508.304688 909.679688 507.429688 C 910.390625 508.023438 911.121094 508.636719 912.042969 509.085938 C 913.105469 509.722656 914.242188 510.171875 915.328125 510.761719 C 912.609375 510.007812 909.824219 509.4375 907.4375 510.078125 Z M 1006.4375 538.757812 C 997.507812 534.03125 988.578125 529.332031 979.4375 525.054688 C 959.738281 515.535156 937.886719 510.832031 918.753906 500.179688 C 918.753906 499.304688 918.421875 498.453125 918.042969 497.675781 C 924.042969 490.824219 930.089844 483.972656 935.996094 477.027344 C 937.53125 476.339844 938.878906 475.230469 939.28125 473.53125 C 940.011719 470.53125 938.144531 467.601562 935.21875 466.796875 C 934.25 466.535156 933.257812 466.347656 932.289062 466.085938 C 932.121094 465.78125 931.910156 465.710938 931.746094 465.449219 C 938.523438 467.269531 945.304688 469.253906 952.082031 471.050781 C 952.601562 471.191406 953.097656 471.238281 953.546875 471.238281 C 953.902344 471.238281 954.066406 470.953125 954.375 470.90625 C 975.421875 494.320312 995.027344 519.410156 1016.996094 542.089844 C 1013.453125 541 1009.933594 539.84375 1006.414062 538.757812 Z M 1017.28125 526.355469 C 1006.390625 514.613281 995.808594 502.066406 985.414062 489.734375 C 1005.398438 505.164062 1021.039062 525.078125 1035.894531 545.324219 C 1029.519531 539.183594 1023.304688 532.875 1017.28125 526.378906 Z M 994.460938 482.789062 C 979.367188 469.679688 961.226562 460.15625 946.957031 446.195312 C 943.910156 442.535156 938.640625 437.101562 934.082031 441.636719 C 929.429688 447.472656 936.515625 452.789062 941.003906 456.542969 C 929.5 453.472656 917.972656 450.402344 906.46875 447.234375 C 877.910156 439.367188 849.46875 431.050781 821.191406 422.144531 C 799.339844 415.292969 777.46875 408.347656 755.59375 401.285156 L 755.640625 401.285156 C 637.457031 362.421875 519.296875 319.898438 396.320312 297.925781 C 398.683594 297.148438 401.019531 296.367188 403.382812 295.660156 C 405.886719 295.496094 408.390625 295.445312 410.894531 295.304688 C 415.429688 297.382812 420.273438 298.917969 424.832031 300.878906 C 428.917969 302.605469 433.3125 298.445312 432.0625 294.3125 C 434.613281 294.195312 437.140625 294.078125 439.691406 293.957031 C 444.179688 294.148438 448.644531 294.335938 453.296875 294.527344 C 453.296875 294.527344 453.25 294.527344 453.226562 294.527344 C 453.34375 294.527344 453.460938 294.527344 453.582031 294.527344 L 453.769531 294.527344 C 463.289062 294.925781 472.832031 295.210938 482.328125 295.589844 C 482.070312 295.589844 481.808594 295.589844 481.574219 295.542969 C 545.921875 297.785156 610.054688 299.273438 674.566406 301.613281 L 674.238281 301.613281 C 752.472656 304.402344 830.476562 310.730469 908.761719 313.898438 L 908.359375 313.898438 C 914.359375 314.179688 920.3125 314.300781 926.289062 314.488281 L 926.097656 314.488281 C 948.871094 315.222656 971.761719 315.835938 994.507812 316.1875 C 996.917969 315.8125 1001.171875 316.070312 1006.011719 316.332031 C 1009.179688 316.519531 1012.582031 316.710938 1015.816406 316.710938 C 1022.453125 316.710938 1028.597656 315.976562 1031.195312 313.046875 C 1031.808594 356.398438 1035.117188 399.773438 1038.917969 442.960938 C 1042.4375 474.921875 1045.746094 507.3125 1045.460938 539.65625 C 1030.460938 519.03125 1014.515625 498.691406 994.414062 482.765625 Z M 1031.054688 297.101562 C 1031.054688 300.171875 1031.125 303.242188 1031.148438 306.289062 C 1030.109375 304.921875 1028.667969 303.90625 1026.824219 303.953125 C 1017.046875 305.960938 1006.839844 305.535156 996.683594 305.109375 C 991.4375 304.898438 986.171875 304.683594 980.996094 304.800781 C 950.476562 304.1875 920.21875 303.289062 889.507812 302.015625 L 889.769531 302.015625 C 835.269531 299.25 781.105469 295.871094 726.75 293.109375 C 734.570312 293.25 742.386719 293.390625 750.207031 293.507812 C 843.75 295.28125 937.296875 294.382812 1030.839844 297.078125 L 1030.605469 297.078125 C 1030.746094 297.078125 1030.886719 297.078125 1031.003906 297.078125 Z M 1045.109375 323.820312 C 1045.511719 342.980469 1045.390625 362.1875 1045.109375 381.347656 C 1043.878906 356.164062 1042.414062 330.882812 1042.25 305.628906 C 1042.910156 305.394531 1043.644531 305.394531 1044.234375 304.992188 C 1044.847656 304.847656 1045.25 304.425781 1045.722656 304.117188 C 1042.605469 308.746094 1046.007812 318.527344 1045.085938 323.820312 Z M 1031.125 276.214844 C 1030.484375 279.40625 1029.964844 282.640625 1029.941406 285.925781 C 1029.398438 285.925781 1028.972656 285.878906 1028.3125 285.855469 C 956.335938 283.585938 883.769531 284.390625 811.742188 283.160156 C 705.609375 282.265625 599.472656 278.507812 493.335938 280.515625 C 478.925781 280.800781 464.519531 281.390625 450.109375 282.003906 C 486.273438 272.648438 523.007812 265.324219 559.316406 256.585938 C 617.613281 243.046875 675.039062 226.085938 732.820312 210.160156 C 769.8125 200.144531 806.851562 189.988281 843.964844 179.992188 C 871.554688 174.75 899.214844 169.882812 926.996094 165.769531 C 970.863281 159.984375 1017.351562 149.800781 1060.910156 147.367188 C 1052.925781 190.601562 1040.453125 233.171875 1031.101562 276.214844 Z M 1053.566406 229.675781 C 1057.792969 212.003906 1061.855469 194.285156 1066.109375 176.589844 C 1067.832031 164.046875 1080.023438 142.3125 1063.132812 136.335938 C 1071.589844 135.320312 1080.023438 134.113281 1088.480469 133.289062 C 1081.226562 166.621094 1066.039062 197.710938 1053.566406 229.675781 Z M 1053.566406 229.675781 " fill-opacity="1" fill-rule="nonzero"/></g></svg>